<?xml version="1.0" encoding="utf-8"?>
<!-- Generator: Adobe Illustrator 19.1.0, SVG Export Plug-In . SVG Version: 6.00 Build 0)  -->
<svg version="1.1" id="Layer_1" xmlns="http://www.w3.org/2000/svg" xmlns:xlink="http://www.w3.org/1999/xlink" x="0px" y="0px"
	 viewBox="0 0 589.7 131.3" enable-background="new 0 0 589.7 131.3" xml:space="preserve">
<path fill="#AF935A" d="M574.3,28c-1.8,0-3.5,0.5-5,1.5c0-9.3-7.6-16.8-16.9-16.8c-8.5,0-15.5,6.3-16.7,14.4
	c-1.9-1.6-4.3-2.5-6.9-2.5c-6,0-10.9,4.9-10.9,10.9c0,6,4.9,10.9,10.9,10.9h45.4c5.1,0,9.2-4.1,9.2-9.2S579.3,28,574.3,28z"/>
<path fill="#BFA373" d="M501,11.5c-1.4,0-2.7,0.4-3.7,1.1c0-7-5.7-12.6-12.7-12.6c-6.4,0-11.7,4.7-12.6,10.9
	c-1.4-1.2-3.2-1.9-5.2-1.9c-4.5,0-8.2,3.7-8.2,8.2c0,4.5,3.7,8.2,8.2,8.2H501c3.8,0,6.9-3.1,6.9-6.9S504.8,11.5,501,11.5z"/>
<g>
	<path fill="#CE7CA0" d="M157.3,24.4c3.5-0.6,5-0.3,4.6,1c-6.8,21.8-12.2,47.6-16.3,77.3c-0.2,1.3-1.8,2.3-4.9,3.2
		c-1.8,0.7-3.5,1.1-5.1,1.2c-1.8,0.1-2.8-0.2-3.1-0.9c-1.2-3.4-2.5-9.1-3.8-17c-0.9-5.5-2-11.7-3.1-18.5c0-0.4-0.1-1-0.3-1.8
		c-2.9,13.6-4.9,24.5-5.9,32.5c-0.1,1.3-1.9,2.3-5.3,3.2c-0.9,0.3-2,0.4-3.4,0.5c-2,0.2-3-0.1-2.9-0.7c1.1-8.2,3.1-19.1,5.9-32.9
		c3.4-15.9,5.6-26.8,6.5-32.7c0.1-0.5,0.9-1.1,2.4-1.8c1.3-0.6,2.8-1.1,4.4-1.4c3.3-0.6,4.9-0.3,4.6,1V37l-0.1,0.1
		c0.1,0.1,0.1,0.1,0.1,0.2c1,2.1,1.9,6.5,2.7,13.3c0.3,2.1,1.2,7.7,2.7,17.1c0.6,3.5,1.1,6.6,1.6,9.3c3.3-18,7.2-34.5,11.9-49.5
		c0.1-0.5,0.9-1,2.4-1.7c1.3-0.6,2-0.9,2-0.9S155.7,24.7,157.3,24.4z"/>
	<path fill="#CE7CA0" d="M162.9,53.5c0.1-0.5,0.8-1,2.3-1.7c1.3-0.6,2.8-1.1,4.4-1.4c3.3-0.6,4.8-0.3,4.6,1
		c-1.5,8.1-3.4,16.6-5.7,25.4c-1.2,4.2-2.3,8.4-3.6,12.5c-1.7,5.8-2.5,9.4-2.2,10.8c0.3,1.3-1.5,2.5-5.4,3.5c-3.8,1-5.9,0.8-6.1-0.4
		c-0.3-1.6,0.5-5.5,2.3-11.8c1.4-4.6,2.6-8.8,3.6-12.5C159.6,69.9,161.5,61.4,162.9,53.5z M161.6,37.7c-0.7-0.5-0.4-1.1,0.9-1.9
		c0.8-0.5,1.7-0.9,2.6-1.2c1.5-0.5,3-0.9,4.5-1c1.4-0.1,2.4,0,2.9,0.3c1.5,1,2.9,2.1,3.9,3.2c1,1-0.2,2-3.5,3.2
		c-1.5,0.5-3,0.9-4.5,1c-1.6,0.1-2.6,0-2.9-0.3C164.4,39.8,163.1,38.8,161.6,37.7z"/>
	<path fill="#CE7CA0" d="M209,50.3c2.6,2.6,3.8,5.8,3.6,9.6c-0.1,3.6-1.4,6.7-3.9,9.5c-1.3,1.5-3.9,2.4-7.7,2.8
		c-1,0.1-1.8,0-2.4-0.2c-0.9-0.3-1-0.8-0.3-1.7c1.9-2.2,2.9-4.7,2.9-7.6c0-3.9-1.1-6.8-3.3-8.8c-0.8-0.7-1.5-1.2-2.2-1.5
		c-0.3-0.1-0.5-0.2-0.6-0.3H195l-0.1,0.1c-2.5,1.7-4.7,4.4-6.6,8.1c-1.8,3.6-3.1,7.6-3.9,11.9c-0.8,4.2-1.1,8.3-1,12.4
		c0.1,5.2,0.9,9.1,2.2,11.7c0.8,1.6,1.6,2.7,2.6,3.4c0.3-0.3,0.6-0.5,0.8-0.7c1.1-1.2,2.2-2.6,3.2-4.3c0.9-1.4,3.1-2.4,6.8-3.1
		c0.9-0.2,1.8-0.3,2.9-0.2c1.6,0.1,2.2,0.5,1.7,1.2c-3.3,5.6-7.8,9.3-13.2,11c-8,2.6-13.2,1.5-15.7-3.4c-2.9-5.5-3.5-13.4-1.8-23.9
		c1.6-10,5-17.3,10.2-21.9c4-3.6,8.8-5.8,14.4-6.8c5.3-0.8,7.9-1.2,7.9-1.2S206.5,47.7,209,50.3z M196.1,51.6
		C196.1,51.6,196.1,51.6,196.1,51.6C196,51.6,196.1,51.6,196.1,51.6z"/>
	<path fill="#CE7CA0" d="M251.5,53.4c0.6,2.2,0.8,5.4,0.5,9.5c-0.2,2.7-0.6,6-1.2,9.9c-0.7,4.7-1.5,8.4-2.3,11
		c-2.7,8.5-4,14.1-4.1,16.7c0,1.5-2,2.6-5.8,3.4c-1.5,0.3-2.8,0.4-3.9,0.4c-1.2-0.1-1.8-0.3-1.8-0.7c0-3.3,0.9-7.7,2.6-13.1
		c2-6.3,3.2-10.6,3.5-12.9c1.2-7.9,1.8-13.4,1.7-16.6c-0.1-2.2-0.3-3.7-0.6-4.6c-2.1,2.6-4.4,6.7-7,12.5c-2.3,5.1-4.8,11.7-7.6,19.7
		c-2.7,8-4.3,12.5-4.6,13.3c-0.5,1.1-2.6,2-6.2,2.8c-3.6,0.8-5.4,0.7-5.3-0.3c2.4-20.5,7.7-47,16-79.5c0.1-0.5,0.9-1,2.3-1.7
		c1.3-0.6,2.8-1.1,4.4-1.4c3.4-0.6,4.9-0.3,4.6,1c-3.6,14.3-6.5,26.4-8.7,36.4c1.8-2.5,3.7-4.4,5.8-5.8c2.8-1.9,6-3.1,9.6-3.6
		C247.9,49.1,250.6,50.3,251.5,53.4z"/>
	<path fill="#CE7CA0" d="M286.7,59c0.4,4.3-0.5,9.4-2.6,15.6c-0.3,0.7-1.5,1.5-3.7,2.3c-1.8,0.6-3.3,0.9-4.5,1c-0.8,0-3,0-6.6,0
		c-2.8,0-5,0.1-6.6,0.3c-0.6,2.9-1,6.1-1.2,9.7c-0.2,4,0,6.8,0.4,8.6c0.4,1.7,1,2.8,1.7,3.4c0.8-0.7,1.4-1.3,1.9-1.9
		c2.2-2.8,3.6-5.7,4.1-8.6c0.1-0.5,0.9-1.1,2.4-1.8c1.3-0.6,2.8-1.1,4.4-1.4c3.3-0.6,4.8-0.2,4.6,1.1c-0.8,4.7-3.3,8.8-7.6,12.3
		c-2.5,2-5,3.5-7.6,4.3c-4.4,1.5-7.8,1.9-10.3,1.3c-3.7-0.9-5.6-4.4-5.6-10.4c0-3.7,0.3-7.9,1-12.6c1.3-8.2,3.1-14.4,5.5-18.6
		c1.5-3.4,3.3-6.1,5.2-8c2.8-2.8,6.7-4.6,11.5-5.5c5.2-0.9,8.7-0.4,10.6,1.5C285.4,53.2,286.4,55.7,286.7,59z M261.5,101.4
		c0,0-0.1,0.1-0.2,0.1L261.5,101.4z M263.3,74.2c2.7-0.4,6.2-0.6,10.4-0.8c1.3-5,1.8-8.9,1.4-11.8c-0.3-3.3-1.2-5.6-2.6-6.6
		c-0.2-0.1-0.4-0.3-0.5-0.3c-0.2,0.2-0.3,0.2-0.2,0.2c-0.4,0.4-0.8,0.9-1.1,1.3c-0.9,1.2-1.6,2.5-2.3,3.8c-1.4,2.9-2.6,5.7-3.7,8.4
		C264.2,70.2,263.7,72.2,263.3,74.2z M273.3,53.4C273.3,53.4,273.4,53.4,273.3,53.4C273.4,53.4,273.3,53.4,273.3,53.4z"/>
	<path fill="#CE7CA0" d="M349.7,62c-0.9,1.4-3.1,2.4-6.8,3.1c-0.9,0.2-1.8,0.2-2.9,0.2c-1.6,0-2.2-0.4-1.7-1.2c3-5,4.9-11,5.5-17.9
		c0.3-3.4,0.2-6.1-0.4-8.2c-0.4-1.3-0.8-2.4-1.5-3.1c-0.2-0.3-0.5-0.5-0.9-0.8c-0.5-0.3-0.8-0.5-0.9-0.5c-0.4-0.1-0.8-0.2-1.1-0.3
		H339c0.1,0,0.1,0-0.1,0c0.4,0,0.8-0.1,1.2-0.2c-0.2,0.1-0.3,0.1-0.1,0c-0.2,0.1-0.3,0.1-0.2,0.1c-0.3,0.1-0.4,0.2-0.4,0.2
		c-0.5,0.3-0.9,0.5-1.1,0.7c-2.7,1.8-5.1,4.5-7.3,8.1c-5,8.2-7,16-5.9,23.6c0.5,3.8,1.6,6.5,3.2,8c1.5,1.4,3.6,2.6,6.4,3.7
		c0.7,0.3,1.8,0.7,3.3,1.2c1.7,0.5,2.9,1,3.7,1.2c3,1.1,5.1,2.3,6.5,3.8c2,2.1,2.8,4.7,2.2,8c-0.5,2.7-1.7,5.4-3.7,7.9
		c-3,3.8-7.2,6.8-12.5,8.9c-6.7,2.7-12.4,3.3-17.1,1.9c-4.6-1.3-7.6-3.9-9-7.8c-0.8-2.2-1-4.2-0.6-6.1c0.4-1.7,1.6-3.4,3.7-4.9
		c2.2-1.5,4.9-2.3,8.2-2.2c1.2,0,1.9,0.3,2.1,0.8c0.1,0.4-0.4,0.9-1.4,1.7c-1.2,0.9-1.5,2.6-1,5.2c0.5,2.4,1.3,4.3,2.4,5.6
		c1.6,1.8,3.3,2.9,5.2,3.3c0.8,0.2,1.3,0.3,1.6,0.3c0.5,0,0.8,0,0.8,0c0.3,0,0.5,0,0.7-0.1c-0.3,0.1-0.5,0.1-0.5,0.1
		c0.6-0.3,0.7-0.3,0.2-0.1c0.3-0.1,0.6-0.3,1-0.5c0.1-0.1,0.4-0.2,0.8-0.5c0.8-0.5,1.5-1.1,2.2-1.7c1.5-1.3,2.7-2.9,3.6-4.7
		c1.8-3.5,2.4-6.3,1.9-8.4c-0.5-1.9-1.9-3.6-4.2-4.9c-1.1-0.6-3.1-1.4-6.1-2.5c-7.2-2.6-11.6-5.2-13.2-7.8c-3.2-5.7-3.2-13.1,0-22.4
		c3.2-9.2,8.1-15.8,14.7-19.7c4.7-2.7,9.5-4.3,14.5-4.6c4-0.3,6.7,0.5,8.2,2.3c2.6,3.1,3.3,8.2,2.1,15.6
		C353.8,52.9,352.1,58,349.7,62z"/>
	<path fill="#CE7CA0" d="M392.6,53.4c0.6,2.2,0.8,5.4,0.5,9.5c-0.2,2.7-0.6,6-1.2,9.9c-0.7,4.7-1.5,8.4-2.3,11
		c-2.7,8.5-4,14.1-4.1,16.7c0,1.5-2,2.6-5.8,3.4c-1.5,0.3-2.8,0.4-3.9,0.4c-1.2-0.1-1.8-0.3-1.8-0.7c0-3.3,0.9-7.7,2.6-13.1
		c2-6.3,3.2-10.6,3.5-12.9c1.2-7.9,1.8-13.4,1.7-16.6c-0.1-2.2-0.3-3.7-0.6-4.6c-2.1,2.6-4.4,6.7-7,12.5c-2.3,5.1-4.8,11.7-7.6,19.7
		c-2.7,8-4.3,12.5-4.6,13.3c-0.5,1.1-2.6,2-6.2,2.8c-3.6,0.8-5.4,0.7-5.3-0.3c2.4-20.5,7.7-47,16-79.5c0.1-0.5,0.9-1,2.3-1.7
		c1.3-0.6,2.8-1.1,4.4-1.4c3.4-0.6,4.9-0.3,4.6,1c-3.6,14.3-6.5,26.4-8.7,36.4c1.8-2.5,3.7-4.4,5.8-5.8c2.8-1.9,6-3.1,9.6-3.6
		C389,49.1,391.7,50.3,392.6,53.4z"/>
	<path fill="#CE7CA0" d="M417.9,49.8c5,2.7,7.7,7.8,8.1,15.1c0.3,5.4-0.6,11.4-2.8,17.8c-2.3,6.9-5.3,12.3-9.1,16.1
		c-2.3,2.3-5.2,4.1-8.5,5.4c-3.5,1.3-6.8,1.7-10,1.4c-3.3-0.4-5.3-3.1-5.7-8c-0.4-4.3,0-9.7,1.4-16.3c1.3-6.2,2.9-11.8,5-16.9
		c2.2-5.3,4.5-8.8,7-10.5c1-0.7,2.3-1.2,3.9-1.6c0.8-0.7,1.9-1.3,3.3-1.8C414,49.2,416.5,49,417.9,49.8z M410,89.5
		c3.2-7.3,4.6-14.3,4.3-20.9c-0.2-5.3-1.5-9.4-3.8-12.2c-0.6,1.1-1.3,2.3-1.9,3.7c-1.6,3.5-3,7.5-4.3,11.9
		c-3,10.6-3.9,18.6-2.8,24.2c0.4,1.7,0.9,3,1.6,3.9c0.7-0.7,1.3-1.4,1.8-2C406.9,95.6,408.5,92.7,410,89.5z"/>
	<path fill="#CE7CA0" d="M464.8,53.6c1.1,2.9,1,7.7-0.4,14.6c-1.4,6.7-3.2,13-5.5,18.8c-2.8,7.2-5.8,12.1-8.8,14.8
		c-3,2.6-6.8,4.2-11.4,4.6c-2.1,0.2-3.8-0.1-5.3-0.8c-1.8,8-3.3,14.9-4.4,20.8c-0.1,0.5-0.9,1.1-2.4,1.8c-1.3,0.6-2.8,1.1-4.4,1.4
		c-3.3,0.6-4.8,0.3-4.6-1c1.4-7.1,3.3-16,5.8-26.9c3.7-15.7,5.7-24.7,6.2-26.7c-0.6-0.2-0.9-0.6-0.6-1.1c0.7-1.4,1.2-2.6,1.7-3.6
		c1.4-6.3,2.5-12.1,3.5-17.4c0.1-0.5,0.9-1,2.4-1.7c1.3-0.6,2.8-1.1,4.4-1.4c3.3-0.6,4.9-0.3,4.6,1c0,0.2-0.1,0.5-0.2,0.8
		c-0.1,0.4-0.1,0.7-0.2,0.8c3.3-1.8,6.7-2.8,10.1-2.9C460.4,49.2,463.6,50.6,464.8,53.6z M453.7,65.8c0.3-2.2,0.4-4.1,0.3-5.5
		c-0.3-2.6-0.8-4.3-1.8-5.1c-0.4-0.3-0.7-0.6-1-0.8c-0.7,0.6-1.3,1.2-1.8,1.8c-1.2,1.3-2.4,3-3.6,4.9c-1.3,2.1-2.6,4.5-3.9,7.1
		c-0.6,3-3.2,14-7.6,33.1c0.1-0.1,0.3-0.1,0.5-0.2c3.4-1.3,5.7-1.6,7-1c2.8-4,5.3-9.6,7.7-16.9C451.7,76.6,453.1,70.7,453.7,65.8z"
		/>
</g>
</svg>
